<svg width="700" height="511" viewBox="0 0 1413 511" fill="none" xmlns="http://www.w3.org/2000/svg">
<path d="M1297.22 61.073H932.855V413.058H1297.22V61.073Z" fill="url(#paint0_radial_102_1489)"/>
<path d="M1317.79 155.165C1320.57 155.165 1322.83 152.988 1322.83 150.302C1322.83 147.616 1320.57 145.439 1317.79 145.439C1315.01 145.439 1312.76 147.616 1312.76 150.302C1312.76 152.988 1315.01 155.165 1317.79 155.165Z" fill="#B3EFFF"/>
<path d="M865.851 120.162C868.631 120.162 870.885 117.984 870.885 115.299C870.885 112.613 868.631 110.436 865.851 110.436C863.071 110.436 860.817 112.613 860.817 115.299C860.817 117.984 863.071 120.162 865.851 120.162Z" fill="#B3EFFF"/>
<mask id="mask0_102_1489" style="mask-type:alpha" maskUnits="userSpaceOnUse" x="1178" y="40" width="89" height="86">
<path d="M1191.53 113.186C1208.74 129.888 1236.69 129.956 1253.98 113.34C1271.27 96.7238 1271.34 69.7174 1254.14 53.0163C1236.94 36.3151 1208.98 36.2469 1191.69 52.863C1174.41 69.479 1174.34 96.4853 1191.53 113.186Z" fill="url(#paint1_linear_102_1489)"/>
</mask>
<g mask="url(#mask0_102_1489)">
<path d="M1191.53 113.186C1208.74 129.888 1236.69 129.956 1253.98 113.34C1271.27 96.7238 1271.34 69.7174 1254.14 53.0163C1236.94 36.3151 1208.98 36.2469 1191.69 52.863C1174.41 69.479 1174.34 96.4853 1191.53 113.186Z" fill="url(#paint2_linear_102_1489)"/>
</g>
<path d="M983.152 312.536L1268.52 173.766L1015.93 376.982" fill="url(#paint3_linear_102_1489)"/>
<path d="M1138.19 255.883L1268.52 173.766L1111.34 250.501L1138.19 255.883Z" fill="url(#paint4_linear_102_1489)"/>
<path d="M869.386 459.832C856.127 469.353 824.75 478.083 824.75 478.083C824.75 478.083 827.262 476.695 831.388 474.727C835.514 472.752 838.935 468.578 838.935 468.578C838.935 468.578 830.507 473.544 818.79 477.368C807.082 481.192 791.415 483.968 791.415 483.968C791.415 483.968 794.598 482.478 800.178 478.952C805.768 475.426 815.369 469.285 815.369 469.285C815.369 469.285 791.406 481.967 754.775 484.402C740.439 485.356 716.997 490.313 716.997 490.313C716.997 490.313 728.326 480.877 733.712 475.434C742.273 466.798 752.227 452.908 760.029 444.136C771.649 431.071 795.506 408.093 795.506 408.093C795.506 408.093 795.506 408.093 790.71 410.171C785.914 412.249 780.113 414.481 780.113 414.481C780.113 414.481 804.102 392.388 821.955 385.728C842.074 378.225 868.919 381.649 868.919 381.649C868.919 381.649 871.282 392.738 880.063 407.097C889.144 421.933 896.611 427.98 896.611 427.98C896.611 427.98 889.699 445.251 869.386 459.832Z" fill="url(#paint5_linear_102_1489)"/>
<path d="M872.587 447.006C862.624 454.16 839.041 460.726 839.041 460.726C839.041 460.726 840.927 459.687 844.031 458.205C847.134 456.723 849.7 453.581 849.7 453.581C849.7 453.581 843.361 457.311 834.562 460.181C825.763 463.051 813.994 465.146 813.994 465.146C813.994 465.146 816.383 464.022 820.579 461.373C824.776 458.725 831.997 454.109 831.997 454.109C831.997 454.109 813.985 463.639 786.452 465.47C775.678 466.185 758.063 469.907 758.063 469.907C758.063 469.907 766.58 462.813 770.626 458.725C777.062 452.235 784.538 441.802 790.41 435.202C799.147 425.382 817.071 408.119 817.071 408.119C817.071 408.119 817.071 408.119 813.465 409.677C809.859 411.236 805.495 412.914 805.495 412.914C805.495 412.914 823.524 396.315 836.942 391.307C852.062 385.669 872.243 388.241 872.243 388.241C872.243 388.241 874.015 396.579 880.618 407.361C887.442 418.517 893.058 423.048 893.058 423.048C893.058 423.048 887.848 436.045 872.587 447.006Z" fill="url(#paint6_linear_102_1489)"/>
<path d="M887.68 356.678C889.197 354.472 931.497 310.68 982.914 284.985C1034.33 259.29 1057.63 257.093 1057.63 257.093C1057.63 257.093 1070.55 265.899 1083.46 288.902C1096.38 311.906 1100.18 321.198 1099.17 324.136C1098.15 327.074 1048 379.435 993.035 401.212C938.074 422.989 931.744 424.215 931.744 424.215C931.744 424.215 924.903 423.483 917.056 411.985C909.21 400.488 890.969 371.855 888.941 365.493C886.913 359.131 887.68 356.678 887.68 356.678Z" fill="url(#paint7_linear_102_1489)"/>
<path d="M1140.71 254.401C1137.67 250.245 1133.62 249.504 1109.05 249.751C1084.48 249.998 1058.9 257.825 1058.9 257.825L1059.19 258.285C1063 261.359 1073.23 270.668 1083.47 288.902C1093.2 306.217 1097.75 315.764 1098.98 320.678L1099.94 322.177C1099.94 322.177 1099.94 322.177 1104.24 318.259C1108.55 314.342 1126.28 289.141 1132.86 277.396C1139.45 265.66 1143.75 258.557 1140.71 254.401Z" fill="url(#paint8_linear_102_1489)"/>
<path d="M933.781 423.474L905.666 480.732C905.666 480.732 933.269 469.72 965.44 449.169C997.611 428.618 1000.14 425.433 1000.14 425.433L1008.75 394.117C1008.75 394.117 957.082 417.112 933.781 423.474Z" fill="url(#paint9_linear_102_1489)"/>
<path d="M950.743 304.071L921.112 298.203C921.112 298.203 895.024 308.721 873.239 322.424C851.454 336.127 830.18 351.542 830.18 351.542L889.699 354.481C889.708 354.472 931.753 312.877 950.743 304.071Z" fill="url(#paint10_linear_102_1489)"/>
<path d="M917.056 411.977C909.201 400.479 890.969 371.846 888.941 365.484C888.386 363.755 888.051 362.325 887.839 361.141L872.481 372.085C872.481 372.085 871.467 382.85 885.141 402.915C898.815 422.98 905.912 429.828 909.201 429.581C912.489 429.334 926.675 422.239 926.675 422.239L926.384 421.779C923.818 420.051 920.539 417.07 917.056 411.977Z" fill="url(#paint11_linear_102_1489)"/>
<path d="M873.495 378.455L868.937 381.632C868.937 381.632 868.434 388.479 878.811 405.121C889.197 421.762 895.527 427.877 898.313 428.124C901.099 428.371 903.126 425.919 903.126 425.919C903.126 425.919 878.811 399.738 873.495 378.455Z" fill="url(#paint12_linear_102_1489)"/>
<path d="M969.24 342.242L946.441 349.831C946.441 349.831 911.096 368.772 899.582 375.525C885.141 383.991 842.849 411.006 842.849 411.006L844.621 414.677L949.483 354.242L972.528 345.674L969.24 342.242Z" fill="url(#paint13_linear_102_1489)"/>
<path d="M844.622 414.668L902.368 388.973C902.368 388.973 924.55 376.726 931.753 372.332C942.165 365.987 972.528 345.666 972.528 345.666L948.469 354.472L844.622 414.668Z" fill="url(#paint14_linear_102_1489)"/>
<path d="M1073.09 134.998L1078.66 132.792C1078.66 132.792 1080.06 133.414 1081.45 136.463C1083.22 140.38 1083.47 143.072 1083.47 143.072L1077.9 146.01C1077.89 146.01 1075.11 138.668 1073.09 134.998Z" fill="black"/>
<path d="M1021.92 183.449L1078.91 150.174C1078.91 150.174 1079.58 144.954 1077.56 140.389C1075.53 135.824 1073.17 134.512 1073.17 134.512L999.885 166.569" fill="url(#paint15_linear_102_1489)"/>
<path d="M996.165 166.399C996.165 166.399 985.189 178.058 982.658 190.782C980.128 203.506 980.375 224.789 979.617 231.892C978.859 238.986 975.059 252.204 972.775 258.319C970.492 264.434 969.734 273.002 969.734 273.002C969.734 273.002 985.691 274.714 1003.42 272.755C1021.15 270.796 1027.48 268.599 1027.48 268.599C1027.48 268.599 1026.47 248.533 1024.61 242.01C1022.75 235.486 1022.24 233.203 1022.24 233.203C1022.24 233.203 1022.92 230.759 1024.61 226.356C1026.3 221.953 1034.74 206.291 1033.39 200.261C1032.04 194.223 1028.66 185.416 1025.79 182.478C1022.91 179.54 1021.73 179.054 1021.73 179.054C1021.73 179.054 1015.15 169.916 1010.59 165.675C1006.03 161.433 1000.46 161.919 1000.46 161.919L996.165 166.399Z" fill="url(#paint16_linear_102_1489)"/>
<path opacity="0.5" d="M1000.4 205.32C1000.4 205.32 1003.35 213.641 1008.25 219.185C1013.15 224.729 1023.2 230.444 1023.2 230.444L1024.62 226.356L1001.08 205.328" fill="url(#paint17_linear_102_1489)"/>
<path d="M1019.38 175.861C1017.05 172.812 1013.44 168.298 1010.61 165.666C1006.05 161.425 1000.48 161.91 1000.48 161.91L996.227 166.339C999.277 168.145 1006.81 169.482 1011.62 172.19C1014.55 173.834 1017.22 175.026 1019.38 175.861Z" fill="url(#paint18_linear_102_1489)"/>
<path d="M999.127 240.051C999.127 240.051 1004.53 239.889 1012.3 238.092C1020.07 236.295 1021.41 235.154 1021.41 235.154L1019.72 241.839C1019.72 241.839 1015.83 244.445 1010.26 244.939C1004.69 245.425 998.607 245.595 998.607 245.595L999.127 240.051Z" fill="url(#paint19_linear_102_1489)"/>
<path d="M974.812 273.325C974.812 273.325 976.328 281.152 981.565 284.09C986.802 287.029 991.863 289.311 991.863 289.311L1015.84 306.932L977.854 321.777C977.854 321.777 982.747 332.865 986.802 338.418C990.858 343.963 993.723 346.577 993.723 346.083C993.723 345.589 1017.7 334.824 1030.53 330.097C1043.37 325.371 1049.78 322.594 1052.15 317.868C1054.51 313.141 1049.45 307.758 1047.08 303.517C1044.72 299.276 1028.67 277.422 1025.81 274.322C1022.94 271.222 1020.57 270.242 1020.57 270.242C1020.57 270.242 994.225 275.122 974.812 273.325Z" fill="black"/>
<path d="M977.845 321.768L967.547 321.606L955.557 326.827L960.626 338.248L962.989 336.783C962.989 336.783 964.171 347.71 967.547 355.051C970.924 362.393 978.356 368.593 980.04 368.431C981.733 368.269 983.082 365.655 983.082 365.655C983.082 365.655 977.175 356.031 978.356 350.648C979.537 345.266 982.068 336.621 982.068 336.621L983.928 334.662C983.928 334.654 978.189 324.545 977.845 321.768Z" fill="url(#paint20_linear_102_1489)"/>
<path d="M977.845 321.768L970.069 321.649C970.457 323.497 971.162 326.359 971.938 327.321C972.996 328.641 979.22 330.745 982.438 336.23L983.928 334.662C983.928 334.654 978.189 324.545 977.845 321.768Z" fill="white"/>
<path d="M980.04 368.422C980.498 368.38 980.93 368.15 981.318 367.852C978.083 365.799 974.68 361.967 971.426 357.819C966.701 351.781 966.357 339.389 965.687 336.775C965.123 334.603 961.64 327.125 960.485 324.672L955.557 326.819L960.626 338.239L962.989 336.775C962.989 336.775 964.171 347.701 967.547 355.043C970.924 362.384 978.356 368.584 980.04 368.422Z" fill="black"/>
<path d="M1007.61 162.404C1007.61 162.404 1007.11 158.248 1006.85 156.528C1006.59 154.816 1007.61 146.01 1012.55 142.458C1017.48 138.907 1026.1 138.541 1031.29 140.993C1036.48 143.438 1041.16 146.257 1042.18 147.969C1043.19 149.68 1043.69 152.866 1043.31 153.845C1042.94 154.824 1042.3 154.824 1042.3 154.824L1036.98 150.541C1036.98 150.541 1033.06 154.458 1032.93 155.438C1032.81 156.417 1031.54 161.919 1031.54 161.919C1031.54 161.919 1029.13 161.8 1029.13 161.433C1029.13 161.067 1026.72 154.586 1024.95 154.824C1023.18 155.071 1020.82 154.578 1019.76 158.495C1019.46 159.619 1018.87 162.413 1018.87 162.413L1011.01 165.47L1007.61 162.404Z" fill="black"/>
<path d="M1036.99 150.541C1036.99 150.541 1033.07 154.458 1032.94 155.438C1032.81 156.417 1031.54 161.919 1031.54 161.919C1031.54 161.919 1029.14 161.8 1029.14 161.433C1029.14 161.067 1026.73 154.586 1024.96 154.824C1023.19 155.071 1020.82 154.578 1019.77 158.495C1019.47 159.619 1018.88 162.413 1018.88 162.413L1011.02 165.47L1021.41 178.969L1023.43 178.152C1023.43 178.152 1031.7 180.843 1032.47 180.758C1033.23 180.673 1034.08 177.249 1034.08 176.925C1034.08 176.602 1035.51 176.269 1036.1 176.108C1036.69 175.946 1035.94 174.719 1035.94 174.719L1037.37 174.472L1037.87 171.534C1037.87 171.534 1038.97 172.02 1039.31 172.02C1039.65 172.02 1041 171.449 1041 171.449L1039.66 162.149L1041.17 160.761L1041.76 154.56L1041.61 154.237L1036.99 150.541Z" fill="url(#paint21_linear_102_1489)"/>
<path d="M1000.48 204.485C1000.48 204.485 1002.67 212.312 1022.43 225.198C1042.19 238.083 1055.36 245.748 1059.92 248.201C1064.47 250.646 1071.39 256.684 1071.39 256.684C1071.39 256.684 1075.28 252.443 1077.47 248.525C1079.66 244.607 1080.17 242.648 1080.17 242.648C1080.17 242.648 1055.85 226.501 1048.59 220.956C1041.32 215.412 1031.54 204.153 1030.52 201.871C1029.51 199.588 1029.34 184.42 1022.08 180.502C1014.81 176.585 1006.71 180.502 1003.17 188.823C999.621 197.144 1000.48 204.485 1000.48 204.485Z" fill="url(#paint22_linear_102_1489)"/>
<path d="M1073.71 253.55L1079.8 255.994C1079.8 255.994 1082.2 253.916 1083.47 250.364C1084.74 246.813 1085.24 245.229 1085.24 245.229L1080.18 242.657C1080.18 242.657 1076 251.71 1073.71 253.55Z" fill="black"/>
<path d="M1085.24 246.208C1085.24 246.208 1093.86 245.229 1096.01 245.229C1098.16 245.229 1102.34 246.455 1106.02 248.039C1109.69 249.624 1112.48 252.076 1112.48 252.69C1112.48 253.303 1111.84 254.282 1109.82 253.916C1107.79 253.55 1099.55 251.838 1098.16 251.957C1096.77 252.076 1090.06 255.509 1087.9 255.509C1085.74 255.509 1081.82 254.044 1081.82 254.044C1081.82 254.044 1085.24 248.039 1085.24 246.208Z" fill="url(#paint23_linear_102_1489)"/>
<path d="M1078.66 132.8C1078.66 132.8 1082.71 130.927 1084.91 129.785C1087.11 128.644 1092 126.2 1095.72 124.727C1099.43 123.262 1104.33 120.647 1104.83 121.95C1105.34 123.253 1095.21 128.968 1095.21 128.968C1095.21 128.968 1098.58 132.886 1098.58 133.533C1098.58 134.189 1095.04 139.895 1095.04 139.895C1095.04 139.895 1092.26 140.866 1091.33 140.712C1090.39 140.559 1088.12 138.754 1088.12 138.754L1083.05 140.218C1083.05 140.218 1080.34 134.18 1078.66 132.8Z" fill="url(#paint24_linear_102_1489)"/>
<path d="M914.579 105.964C915.543 105.964 916.325 105.209 916.325 104.278C916.325 103.347 915.543 102.592 914.579 102.592C913.615 102.592 912.833 103.347 912.833 104.278C912.833 105.209 913.615 105.964 914.579 105.964Z" fill="white"/>
<path d="M977.924 154.85C977.924 155.31 977.536 155.685 977.06 155.685C976.584 155.685 976.196 155.31 976.196 154.85C976.196 154.39 976.584 154.015 977.06 154.015C977.536 154.015 977.924 154.39 977.924 154.85Z" fill="white"/>
<path d="M875.329 169.09C875.329 170.35 874.271 171.364 872.975 171.364C871.67 171.364 870.621 170.342 870.621 169.09C870.621 167.829 871.679 166.816 872.975 166.816C874.271 166.816 875.329 167.838 875.329 169.09Z" fill="white"/>
<path d="M812.019 158.504C812.019 159.475 811.208 160.258 810.211 160.258C809.206 160.258 808.395 159.475 808.395 158.504C808.395 157.533 809.206 156.749 810.211 156.749C811.208 156.758 812.019 157.541 812.019 158.504Z" fill="white"/>
<path d="M970.28 108.741C970.28 109.618 969.54 110.333 968.632 110.333C967.724 110.333 966.983 109.618 966.983 108.741C966.983 107.864 967.724 107.148 968.632 107.148C969.549 107.148 970.28 107.864 970.28 108.741Z" fill="white"/>
<path d="M1284.26 93.3086C1285.46 93.3086 1286.42 92.3744 1286.42 91.222C1286.42 90.0696 1285.46 89.1354 1284.26 89.1354C1283.07 89.1354 1282.1 90.0696 1282.1 91.222C1282.1 92.3744 1283.07 93.3086 1284.26 93.3086Z" fill="white"/>
<path d="M1362.73 153.871C1362.73 154.441 1362.25 154.901 1361.66 154.901C1361.07 154.901 1360.6 154.441 1360.6 153.871C1360.6 153.3 1361.07 152.84 1361.66 152.84C1362.25 152.84 1362.73 153.3 1362.73 153.871Z" fill="white"/>
<path d="M1235.63 171.509C1235.63 173.067 1234.33 174.328 1232.72 174.328C1231.1 174.328 1229.8 173.067 1229.8 171.509C1229.8 169.95 1231.1 168.69 1232.72 168.69C1234.33 168.69 1235.63 169.95 1235.63 171.509Z" fill="white"/>
<path d="M1157.21 158.393C1157.21 159.594 1156.21 160.565 1154.96 160.565C1153.72 160.565 1152.72 159.594 1152.72 158.393C1152.72 157.192 1153.72 156.221 1154.96 156.221C1156.21 156.23 1157.21 157.201 1157.21 158.393Z" fill="white"/>
<path d="M1353.27 96.7493C1353.27 97.8395 1352.35 98.7252 1351.22 98.7252C1350.1 98.7252 1349.18 97.8395 1349.18 96.7493C1349.18 95.6592 1350.1 94.7735 1351.22 94.7735C1352.35 94.7735 1353.27 95.6592 1353.27 96.7493Z" fill="white"/>
<path d="M1189.89 344.337C1191.08 344.337 1192.05 343.403 1192.05 342.251C1192.05 341.098 1191.08 340.164 1189.89 340.164C1188.69 340.164 1187.73 341.098 1187.73 342.251C1187.73 343.403 1188.69 344.337 1189.89 344.337Z" fill="white"/>
<path d="M1268.36 404.899C1268.36 405.47 1267.88 405.93 1267.29 405.93C1266.7 405.93 1266.23 405.47 1266.23 404.899C1266.23 404.329 1266.7 403.869 1267.29 403.869C1267.88 403.86 1268.36 404.329 1268.36 404.899Z" fill="white"/>
<path d="M1141.26 422.537C1141.26 424.096 1139.96 425.356 1138.35 425.356C1136.73 425.356 1135.43 424.096 1135.43 422.537C1135.43 420.979 1136.73 419.718 1138.35 419.718C1139.96 419.718 1141.26 420.979 1141.26 422.537Z" fill="white"/>
<path d="M1062.84 409.422C1062.84 410.623 1061.84 411.593 1060.59 411.593C1059.35 411.593 1058.35 410.623 1058.35 409.422C1058.35 408.221 1059.35 407.25 1060.59 407.25C1061.84 407.25 1062.84 408.221 1062.84 409.422Z" fill="white"/>
<path d="M1258.9 347.778C1258.9 348.868 1257.98 349.754 1256.85 349.754C1255.73 349.754 1254.81 348.868 1254.81 347.778C1254.81 346.688 1255.73 345.802 1256.85 345.802C1257.98 345.802 1258.9 346.688 1258.9 347.778Z" fill="white"/>
<path d="M1101.72 439.988C1102.37 439.988 1102.9 439.481 1102.9 438.855C1102.9 438.23 1102.37 437.723 1101.72 437.723C1101.08 437.723 1100.55 438.23 1100.55 438.855C1100.55 439.481 1101.08 439.988 1101.72 439.988Z" fill="white"/>
<path d="M1144.38 472.922C1144.38 473.229 1144.13 473.484 1143.8 473.484C1143.49 473.484 1143.22 473.237 1143.22 472.922C1143.22 472.607 1143.48 472.36 1143.8 472.36C1144.13 472.36 1144.38 472.607 1144.38 472.922Z" fill="white"/>
<path d="M1075.28 482.512C1075.28 483.363 1074.57 484.045 1073.7 484.045C1072.81 484.045 1072.11 483.355 1072.11 482.512C1072.11 481.66 1072.82 480.979 1073.7 480.979C1074.57 480.979 1075.28 481.66 1075.28 482.512Z" fill="white"/>
<path d="M1032.64 475.375C1032.64 476.022 1032.09 476.55 1031.42 476.55C1030.75 476.55 1030.2 476.022 1030.2 475.375C1030.2 474.727 1030.75 474.199 1031.42 474.199C1032.09 474.199 1032.64 474.727 1032.64 475.375Z" fill="white"/>
<path d="M1139.24 441.862C1139.24 442.458 1138.75 442.935 1138.13 442.935C1137.52 442.935 1137.02 442.458 1137.02 441.862C1137.02 441.266 1137.52 440.789 1138.13 440.789C1138.74 440.789 1139.24 441.266 1139.24 441.862Z" fill="white"/>
<path d="M851.692 253.601C852.34 253.601 852.865 253.094 852.865 252.468C852.865 251.842 852.34 251.335 851.692 251.335C851.045 251.335 850.52 251.842 850.52 252.468C850.52 253.094 851.045 253.601 851.692 253.601Z" fill="white"/>
<path d="M894.363 286.535C894.363 286.841 894.107 287.097 893.781 287.097C893.464 287.097 893.199 286.85 893.199 286.535C893.199 286.228 893.455 285.973 893.781 285.973C894.099 285.973 894.363 286.228 894.363 286.535Z" fill="white"/>
<path d="M825.252 296.125C825.252 296.976 824.538 297.657 823.665 297.657C822.783 297.657 822.078 296.968 822.078 296.125C822.078 295.273 822.792 294.592 823.665 294.592C824.547 294.592 825.252 295.281 825.252 296.125Z" fill="white"/>
<path d="M782.616 288.996C782.616 289.643 782.07 290.171 781.4 290.171C780.73 290.171 780.183 289.643 780.183 288.996C780.183 288.349 780.73 287.821 781.4 287.821C782.07 287.821 782.616 288.34 782.616 288.996Z" fill="white"/>
<path d="M889.214 255.474C889.214 256.071 888.721 256.548 888.104 256.548C887.486 256.548 886.993 256.071 886.993 255.474C886.993 254.878 887.486 254.401 888.104 254.401C888.721 254.401 889.214 254.887 889.214 255.474Z" fill="white"/>
<path d="M1295.62 227.565C1296.27 227.565 1296.79 227.058 1296.79 226.433C1296.79 225.807 1296.27 225.3 1295.62 225.3C1294.97 225.3 1294.45 225.807 1294.45 226.433C1294.45 227.058 1294.97 227.565 1295.62 227.565Z" fill="white"/>
<path d="M1338.29 260.499C1338.29 260.806 1338.03 261.061 1337.71 261.061C1337.38 261.061 1337.13 260.814 1337.13 260.499C1337.13 260.193 1337.38 259.937 1337.71 259.937C1338.03 259.937 1338.29 260.184 1338.29 260.499Z" fill="white"/>
<path d="M1269.18 270.089C1269.18 270.941 1268.47 271.622 1267.59 271.622C1266.71 271.622 1266.01 270.932 1266.01 270.089C1266.01 269.237 1266.72 268.556 1267.59 268.556C1268.47 268.556 1269.18 269.246 1269.18 270.089Z" fill="white"/>
<path d="M1226.54 262.961C1226.54 263.608 1226 264.136 1225.33 264.136C1224.66 264.136 1224.11 263.608 1224.11 262.961C1224.11 262.313 1224.66 261.785 1225.33 261.785C1226 261.777 1226.54 262.305 1226.54 262.961Z" fill="white"/>
<path d="M1333.14 229.439C1333.14 230.035 1332.65 230.512 1332.03 230.512C1331.41 230.512 1330.92 230.035 1330.92 229.439C1330.92 228.843 1331.41 228.366 1332.03 228.366C1332.65 228.366 1333.14 228.851 1333.14 229.439Z" fill="white"/>
<path d="M1167.15 152.457C1167.8 152.457 1168.32 151.95 1168.32 151.324C1168.32 150.699 1167.8 150.191 1167.15 150.191C1166.5 150.191 1165.98 150.699 1165.98 151.324C1165.98 151.95 1166.5 152.457 1167.15 152.457Z" fill="white"/>
<path d="M1209.82 185.391C1209.82 185.697 1209.56 185.953 1209.24 185.953C1208.91 185.953 1208.66 185.706 1208.66 185.391C1208.66 185.084 1208.91 184.829 1209.24 184.829C1209.56 184.829 1209.82 185.076 1209.82 185.391Z" fill="white"/>
<path d="M1140.71 194.981C1140.71 195.832 1139.99 196.514 1139.12 196.514C1138.24 196.514 1137.53 195.824 1137.53 194.981C1137.53 194.129 1138.25 193.448 1139.12 193.448C1140 193.448 1140.71 194.137 1140.71 194.981Z" fill="white"/>
<path d="M1098.07 187.852C1098.07 188.499 1097.53 189.027 1096.86 189.027C1096.19 189.027 1095.64 188.499 1095.64 187.852C1095.64 187.205 1096.19 186.677 1096.86 186.677C1097.53 186.668 1098.07 187.196 1098.07 187.852Z" fill="white"/>
<path d="M1204.67 154.331C1204.67 154.927 1204.18 155.404 1203.56 155.404C1202.94 155.404 1202.45 154.927 1202.45 154.331C1202.45 153.734 1202.94 153.257 1203.56 153.257C1204.18 153.257 1204.67 153.734 1204.67 154.331Z" fill="white"/>
<path opacity="0.6" d="M1273.56 63.7558C1276.94 63.7558 1280.09 64.65 1282.8 66.2086C1283.44 57.1128 1291.28 49.9332 1300.86 49.9332C1303.19 49.9332 1305.42 50.3676 1307.47 51.1426C1310.08 42.7111 1318.16 36.562 1327.74 36.562C1339.43 36.562 1348.9 45.7175 1348.9 57.002C1348.9 57.2916 1348.89 57.5812 1348.87 57.8622C1348.88 57.8622 1348.89 57.8622 1348.9 57.8622C1360.58 57.8622 1370.06 67.0176 1370.06 78.3022C1370.06 89.5953 1360.58 98.7422 1348.9 98.7422C1348.16 98.7422 1347.44 98.7082 1346.74 98.64H1275.53C1274.87 98.7082 1274.22 98.7422 1273.55 98.7422C1263.55 98.7422 1255.44 90.9069 1255.44 81.249C1255.45 71.5911 1263.56 63.7558 1273.56 63.7558Z" fill="url(#paint25_linear_102_1489)"/>
<path opacity="0.3" d="M1183.54 86.9126C1181.61 86.9126 1179.79 87.4236 1178.25 88.3178C1177.88 83.1056 1173.39 78.9921 1167.91 78.9921C1166.73 78.9921 1165.59 79.1965 1164.53 79.5542C1163 74.7849 1158.39 71.3101 1152.95 71.3101C1152.55 71.3101 1152.14 71.3356 1151.75 71.3697C1146.66 71.6763 1142.43 75.0063 1140.96 79.5286C1139.89 79.1709 1138.75 78.9665 1137.56 78.9665C1132.08 78.9665 1127.59 83.0801 1127.22 88.2923C1125.67 87.398 1123.86 86.887 1121.93 86.887C1116.2 86.887 1111.56 91.3753 1111.56 96.9026C1111.56 102.438 1116.21 106.918 1121.93 106.918C1122.31 106.918 1122.69 106.893 1123.06 106.859H1138.98C1139.45 106.91 1139.91 106.944 1140.4 106.944C1140.81 106.944 1141.23 106.927 1141.63 106.884H1164.37C1164.6 106.893 1164.83 106.918 1165.07 106.918C1165.31 106.918 1165.54 106.893 1165.76 106.884H1182.41C1182.78 106.927 1183.16 106.944 1183.54 106.944C1189.27 106.944 1193.91 102.456 1193.91 96.9282C1193.91 91.4009 1189.26 86.9126 1183.54 86.9126Z" fill="url(#paint26_linear_102_1489)"/>
<defs>
<radialGradient id="paint0_radial_102_1489" cx="0" cy="0" r="1" gradientUnits="userSpaceOnUse" gradientTransform="translate(1115.04 237.07) scale(182.185 175.993)">
<stop stop-color="#3E82BF"/>
<stop offset="1" stop-color="#3E82BF" stop-opacity="0"/>
</radialGradient>
<linearGradient id="paint1_linear_102_1489" x1="1231.17" y1="43.09" x2="1214.88" y2="126.949" gradientUnits="userSpaceOnUse">
<stop stop-color="#4D4D4D"/>
<stop offset="0.2928" stop-color="#898989"/>
<stop offset="0.6276" stop-color="#C8C8C8"/>
<stop offset="0.8728" stop-color="#F0F0F0"/>
<stop offset="1" stop-color="white"/>
</linearGradient>
<linearGradient id="paint2_linear_102_1489" x1="1231.17" y1="43.09" x2="1214.88" y2="126.949" gradientUnits="userSpaceOnUse">
<stop stop-color="#88CFDA"/>
<stop offset="0.00834131" stop-color="#89CFD9"/>
<stop offset="0.4784" stop-color="#C8D9BB"/>
<stop offset="0.8218" stop-color="#F0DFA7"/>
<stop offset="1" stop-color="#FFE1A0"/>
</linearGradient>
<linearGradient id="paint3_linear_102_1489" x1="1314.98" y1="160.546" x2="986.897" y2="365.865" gradientUnits="userSpaceOnUse">
<stop stop-color="#1DACFF"/>
<stop offset="0.1355" stop-color="#1CA9FB"/>
<stop offset="0.2739" stop-color="#1B9FEF"/>
<stop offset="0.4138" stop-color="#188EDA"/>
<stop offset="0.5546" stop-color="#1476BD"/>
<stop offset="0.6962" stop-color="#0F5898"/>
<stop offset="0.8385" stop-color="#08326B"/>
<stop offset="0.9788" stop-color="#010737"/>
<stop offset="1" stop-color="#00002E"/>
</linearGradient>
<linearGradient id="paint4_linear_102_1489" x1="1279.65" y1="162.944" x2="1091.74" y2="280.276" gradientUnits="userSpaceOnUse">
<stop stop-color="#1DACFF"/>
<stop offset="0.1355" stop-color="#1CA9FB"/>
<stop offset="0.2739" stop-color="#1B9FEF"/>
<stop offset="0.4138" stop-color="#188EDA"/>
<stop offset="0.5546" stop-color="#1476BD"/>
<stop offset="0.6962" stop-color="#0F5898"/>
<stop offset="0.8385" stop-color="#08326B"/>
<stop offset="0.9788" stop-color="#010737"/>
<stop offset="1" stop-color="#00002E"/>
</linearGradient>
<linearGradient id="paint5_linear_102_1489" x1="717.011" y1="435.576" x2="896.624" y2="435.576" gradientUnits="userSpaceOnUse">
<stop stop-color="#88AEDA"/>
<stop offset="0.0417" stop-color="#8EADD4"/>
<stop offset="0.496" stop-color="#CBA895"/>
<stop offset="0.8277" stop-color="#F1A56D"/>
<stop offset="1" stop-color="#FFA45E"/>
</linearGradient>
<linearGradient id="paint6_linear_102_1489" x1="758.066" y1="428.773" x2="893.051" y2="428.773" gradientUnits="userSpaceOnUse">
<stop stop-color="#88CFDA"/>
<stop offset="0.0417" stop-color="#8ED0D4"/>
<stop offset="0.496" stop-color="#CBD995"/>
<stop offset="0.8277" stop-color="#F1DF6D"/>
<stop offset="1" stop-color="#FFE15E"/>
</linearGradient>
<linearGradient id="paint7_linear_102_1489" x1="1029.96" y1="386.497" x2="875.334" y2="177.997" gradientUnits="userSpaceOnUse">
<stop stop-color="#A1BAFF"/>
<stop offset="0.4885" stop-color="white"/>
</linearGradient>
<linearGradient id="paint8_linear_102_1489" x1="1128.8" y1="301.797" x2="1099.17" y2="251.767" gradientUnits="userSpaceOnUse">
<stop stop-color="#3D00BA"/>
<stop offset="0.7452" stop-color="#CE00FF"/>
</linearGradient>
<linearGradient id="paint9_linear_102_1489" x1="905.662" y1="437.421" x2="1008.75" y2="437.421" gradientUnits="userSpaceOnUse">
<stop stop-color="#3D00BA"/>
<stop offset="0.7452" stop-color="#CE00FF"/>
</linearGradient>
<linearGradient id="paint10_linear_102_1489" x1="929.102" y1="342.491" x2="867.888" y2="317.559" gradientUnits="userSpaceOnUse">
<stop stop-color="#3D00BA"/>
<stop offset="0.7452" stop-color="#CE00FF"/>
</linearGradient>
<linearGradient id="paint11_linear_102_1489" x1="919.282" y1="430.108" x2="878.756" y2="366.432" gradientUnits="userSpaceOnUse">
<stop stop-color="#270036"/>
<stop offset="0.4379" stop-color="#4F008B"/>
<stop offset="1" stop-color="#4C24B1"/>
</linearGradient>
<linearGradient id="paint12_linear_102_1489" x1="869.306" y1="378.934" x2="898.142" y2="431.173" gradientUnits="userSpaceOnUse">
<stop stop-color="#7633FF"/>
<stop offset="0.1585" stop-color="#7137FF"/>
<stop offset="0.3535" stop-color="#6243FF"/>
<stop offset="0.5676" stop-color="#4957FF"/>
<stop offset="0.7937" stop-color="#2672FF"/>
<stop offset="1" stop-color="#0090FF"/>
</linearGradient>
<linearGradient id="paint13_linear_102_1489" x1="980.472" y1="338.39" x2="850.334" y2="410.393" gradientUnits="userSpaceOnUse">
<stop stop-color="#7633FF"/>
<stop offset="0.1316" stop-color="#6342FF"/>
<stop offset="0.5337" stop-color="#2E6CFF"/>
<stop offset="0.8353" stop-color="#0D86FF"/>
<stop offset="1" stop-color="#0090FF"/>
</linearGradient>
<linearGradient id="paint14_linear_102_1489" x1="844.62" y1="380.167" x2="972.529" y2="380.167" gradientUnits="userSpaceOnUse">
<stop stop-color="#3D00BA"/>
<stop offset="0.7452" stop-color="#CE00FF"/>
</linearGradient>
<linearGradient id="paint15_linear_102_1489" x1="999.884" y1="158.978" x2="1079.02" y2="158.978" gradientUnits="userSpaceOnUse">
<stop stop-color="#7633FF"/>
<stop offset="0.1585" stop-color="#7137FF"/>
<stop offset="0.3535" stop-color="#6243FF"/>
<stop offset="0.5676" stop-color="#4957FF"/>
<stop offset="0.7937" stop-color="#2672FF"/>
<stop offset="1" stop-color="#0090FF"/>
</linearGradient>
<linearGradient id="paint16_linear_102_1489" x1="988.617" y1="281.141" x2="1025.7" y2="156.125" gradientUnits="userSpaceOnUse">
<stop stop-color="#7633FF"/>
<stop offset="0.1106" stop-color="#6640FF"/>
<stop offset="0.5243" stop-color="#2F6BFF"/>
<stop offset="0.8331" stop-color="#0D86FF"/>
<stop offset="1" stop-color="#0090FF"/>
</linearGradient>
<linearGradient id="paint17_linear_102_1489" x1="1000.4" y1="217.877" x2="1024.62" y2="217.877" gradientUnits="userSpaceOnUse">
<stop stop-color="#7700BB"/>
<stop offset="1"/>
</linearGradient>
<linearGradient id="paint18_linear_102_1489" x1="996.226" y1="168.881" x2="1019.38" y2="168.881" gradientUnits="userSpaceOnUse">
<stop stop-color="#7633FF"/>
<stop offset="0.1585" stop-color="#7137FF"/>
<stop offset="0.3535" stop-color="#6243FF"/>
<stop offset="0.5676" stop-color="#4957FF"/>
<stop offset="0.7937" stop-color="#2672FF"/>
<stop offset="1" stop-color="#0090FF"/>
</linearGradient>
<linearGradient id="paint19_linear_102_1489" x1="998.618" y1="240.374" x2="1021.41" y2="240.374" gradientUnits="userSpaceOnUse">
<stop stop-color="#7700BB"/>
<stop offset="1"/>
</linearGradient>
<linearGradient id="paint20_linear_102_1489" x1="955.559" y1="345.016" x2="983.927" y2="345.016" gradientUnits="userSpaceOnUse">
<stop stop-color="#270036"/>
<stop offset="0.5936" stop-color="#4F008B"/>
<stop offset="1" stop-color="#4C24B1"/>
</linearGradient>
<linearGradient id="paint21_linear_102_1489" x1="1011.03" y1="165.646" x2="1041.76" y2="165.646" gradientUnits="userSpaceOnUse">
<stop stop-color="#A1BAFF"/>
<stop offset="0.4885" stop-color="white"/>
</linearGradient>
<linearGradient id="paint22_linear_102_1489" x1="1000.39" y1="217.834" x2="1080.18" y2="217.834" gradientUnits="userSpaceOnUse">
<stop stop-color="#7633FF"/>
<stop offset="0.1585" stop-color="#7137FF"/>
<stop offset="0.3535" stop-color="#6243FF"/>
<stop offset="0.5676" stop-color="#4957FF"/>
<stop offset="0.7937" stop-color="#2672FF"/>
<stop offset="1" stop-color="#0090FF"/>
</linearGradient>
<linearGradient id="paint23_linear_102_1489" x1="1081.82" y1="250.365" x2="1112.47" y2="250.365" gradientUnits="userSpaceOnUse">
<stop stop-color="#A1BAFF"/>
<stop offset="0.4885" stop-color="white"/>
</linearGradient>
<linearGradient id="paint24_linear_102_1489" x1="1078.66" y1="131.161" x2="1104.85" y2="131.161" gradientUnits="userSpaceOnUse">
<stop stop-color="#A1BAFF"/>
<stop offset="0.4885" stop-color="white"/>
</linearGradient>
<linearGradient id="paint25_linear_102_1489" x1="1255.45" y1="67.6513" x2="1370.07" y2="67.6513" gradientUnits="userSpaceOnUse">
<stop stop-color="#A1BAFF"/>
<stop offset="0.0888" stop-color="#ACC2FF"/>
<stop offset="0.4988" stop-color="#D9E3FF"/>
<stop offset="0.816" stop-color="#F5F7FF"/>
<stop offset="1" stop-color="white"/>
</linearGradient>
<linearGradient id="paint26_linear_102_1489" x1="1111.55" y1="89.1306" x2="1193.91" y2="89.1306" gradientUnits="userSpaceOnUse">
<stop stop-color="#A1BAFF"/>
<stop offset="0.0888" stop-color="#ACC2FF"/>
<stop offset="0.4988" stop-color="#D9E3FF"/>
<stop offset="0.816" stop-color="#F5F7FF"/>
<stop offset="1" stop-color="white"/>
</linearGradient>
</defs>
</svg>
